<svg xmlns="http://www.w3.org/2000/svg" width="250" height="250" viewBox="0 0 250 250">
  <metadata><?xpacket begin="﻿" id="W5M0MpCehiHzreSzNTczkc9d"?>
<x:xmpmeta xmlns:x="adobe:ns:meta/" x:xmptk="Adobe XMP Core 5.6-c138 79.159824, 2016/09/14-01:09:01        ">
   <rdf:RDF xmlns:rdf="http://www.w3.org/1999/02/22-rdf-syntax-ns#">
      <rdf:Description rdf:about=""/>
   </rdf:RDF>
</x:xmpmeta>
                                                                                                    
                                                                                                    
                                                                                                    
                                                                                                    
                                                                                                    
                                                                                                    
                                                                                                    
                                                                                                    
                                                                                                    
                                                                                                    
                                                                                                    
                                                                                                    
                                                                                                    
                                                                                                    
                                                                                                    
                                                                                                    
                                                                                                    
                                                                                                    
                                                                                                    
                                                                                                    
                           
<?xpacket end="w"?></metadata>
<defs>
    <style>
      .cls-1, .cls-2 {
        fill: #fff;
        fill-rule: evenodd;
      }

      .cls-1 {
        fill-opacity: 0;
        stroke: #f5f6f7;
        stroke-linejoin: round;
        stroke-width: 5px;
      }
    </style>
  </defs>
  <path id="Shape_21_copy_3" data-name="Shape 21 copy 3" class="cls-1" d="M209.1,208.762A117.988,117.988,0,1,0,42.225,208.1,117.959,117.959,0,0,0,209.1,208.762ZM151.558,20.49a5.213,5.213,0,1,0-5.214-5.213A5.213,5.213,0,0,0,151.558,20.49ZM73.467,230.1a4.509,4.509,0,1,0-4.51-4.509A4.509,4.509,0,0,0,73.467,230.1Zm-47.1-46.84a4.509,4.509,0,1,0-4.509-4.509A4.509,4.509,0,0,0,26.367,183.26ZM16.1,156.459a4.509,4.509,0,1,0-4.51-4.509A4.509,4.509,0,0,0,16.1,156.459ZM99.522,240.37a4.509,4.509,0,1,0-4.509-4.509A4.509,4.509,0,0,0,99.522,240.37ZM238.817,123.4a4.509,4.509,0,1,0-4.51-4.509A4.51,4.51,0,0,0,238.817,123.4ZM184.7,33.723a5.01,5.01,0,1,0-5.01-5.01A5.01,5.01,0,0,0,184.7,33.723Zm49.1,61.618a4.509,4.509,0,1,0-4.51-4.509A4.509,4.509,0,0,0,233.807,95.341Z"/>
  <path id="compas" class="cls-2" d="M173.946,136.207a48.823,48.823,0,0,1-37.288,37.341L126.329,194.2,116,173.548a48.822,48.822,0,0,1-37.288-37.341L57.934,125.821l20.778-10.387A48.822,48.822,0,0,1,116,78.094l10.33-20.654,10.329,20.655a48.822,48.822,0,0,1,37.288,37.34l20.778,10.387ZM145.87,91.981a39.077,39.077,0,1,0,14.305,53.378A39.087,39.087,0,0,0,145.87,91.981Zm-11.08,38.724a9.667,9.667,0,0,1-3.77,3.647l-21.79,21.079,7.363-29.407a9.544,9.544,0,0,1,5.043-8.733l21.791-21.08-7.363,29.407A9.671,9.671,0,0,1,134.79,130.705Z"/>
</svg>
